{
  "source": "C:\\Users\\Peter\\Desktop\\stuff\\MIUN\\quantitative_research\\video_compression\\videos\\BVI-HD\\BVI-HD_CDVL_videos\\ORIG\\Music_1920x1080_30fps.mp4",
  "output": "C:\\Users\\Peter\\Desktop\\stuff\\MIUN\\quantitative_research\\video_compression\\compressed_videos\\BVI-HD\\vp9\\8\\Music_1920x1080_30fps_vp9.webm",
  "codec": "vp9",
  "ok": "Input #0, mov,mp4,m4a,3gp,3g2,mj2, from 'C:\\Users\\Peter\\Desktop\\stuff\\MIUN\\quantitative_research\\video_compression\\videos\\BVI-HD\\BVI-HD_CDVL_videos\\ORIG\\Music_1920x1080_30fps.mp4':\n  Metadata:\n    major_brand     : isom\n    minor_version   : 512\n    compatible_brands: isomiso2avc1mp41\n    encoder         : Lavf54.28.101\n  Duration: 00:00:05.00, start: 0.000000, bitrate: 192710 kb/s\n  Stream #0:0[0x1](und): Video: h264 (High 4:4:4 Predictive) (avc1 / 0x31637661), yuv420p(progressive), 1920x1080, 192707 kb/s, 30 fps, 30 tbr, 30 tbn (default)\n    Metadata:\n      handler_name    : VideoHandler\n      vendor_id       : [0][0][0][0]\n[out#0/webm @ 00000294ca9ddac0] Codec AVOption b:a (set bitrate (in bits/s)) has not been used for any stream. The most likely reason is either wrong type (e.g. a video option with no video streams) or that it is a private option of some decoder which was not actually used for any stream.\nStream mapping:\n  Stream #0:0 -> #0:0 (h264 (native) -> vp9 (libvpx-vp9))\nPress [q] to stop, [?] for help\n[libvpx-vp9 @ 00000294caa507c0] v1.15.2-100-g40561f514\nOutput #0, webm, to 'C:\\Users\\Peter\\Desktop\\stuff\\MIUN\\quantitative_research\\video_compression\\compressed_videos\\BVI-HD\\vp9\\8\\Music_1920x1080_30fps_vp9.webm':\n  Metadata:\n    major_brand     : isom\n    minor_version   : 512\n    compatible_brands: isomiso2avc1mp41\n    encoder         : Lavf62.3.100\n  Stream #0:0(und): Video: vp9, yuv420p(tv, progressive), 1920x1080, q=2-31, 8000 kb/s, 30 fps, 1k tbn (default)\n    Metadata:\n      encoder         : Lavc62.11.100 libvpx-vp9\n      handler_name    : VideoHandler\n      vendor_id       : [0][0][0][0]\n    Side data:\n      cpb: bitrate max/min/avg: 0/0/0 buffer size: 8000000 vbv_delay: N/A\nframe=    0 fps=0.0 q=0.0 size=       0KiB time=N/A bitrate=N/A speed=N/A elapsed=0:00:00.51    \nframe=    7 fps=6.8 q=22.0 size=       1KiB time=00:00:00.23 bitrate=  21.7kbits/s speed=0.228x elapsed=0:00:01.02    \nframe=   11 fps=7.1 q=12.0 size=       1KiB time=00:00:00.36 bitrate=  13.8kbits/s speed=0.237x elapsed=0:00:01.54    \nframe=   17 fps=8.2 q=20.0 size=       1KiB time=00:00:00.56 bitrate=   9.0kbits/s speed=0.273x elapsed=0:00:02.07    \nframe=   21 fps=8.1 q=10.0 size=       1KiB time=00:00:00.70 bitrate=   7.2kbits/s speed=0.269x elapsed=0:00:02.60    \nframe=   26 fps=8.3 q=22.0 size=       1KiB time=00:00:00.86 bitrate=   5.9kbits/s speed=0.276x elapsed=0:00:03.13    \nframe=   30 fps=8.2 q=27.0 size=       1KiB time=00:00:01.00 bitrate=   5.1kbits/s speed=0.274x elapsed=0:00:03.64    \nframe=   34 fps=8.1 q=24.0 size=       1KiB time=00:00:01.13 bitrate=   4.5kbits/s speed=0.27x elapsed=0:00:04.19    \nframe=   39 fps=8.3 q=32.0 size=       1KiB time=00:00:01.30 bitrate=   3.9kbits/s speed=0.276x elapsed=0:00:04.71    \nframe=   43 fps=8.2 q=29.0 size=       1KiB time=00:00:01.43 bitrate=   3.5kbits/s speed=0.273x elapsed=0:00:05.24    \nframe=   47 fps=8.1 q=30.0 size=       1KiB time=00:00:01.56 bitrate=   3.2kbits/s speed=0.271x elapsed=0:00:05.77    \nframe=   51 fps=8.1 q=14.0 size=       1KiB time=00:00:01.70 bitrate=   3.0kbits/s speed=0.27x elapsed=0:00:06.28    \nframe=   55 fps=8.1 q=29.0 size=       1KiB time=00:00:01.83 bitrate=   2.8kbits/s speed=0.269x elapsed=0:00:06.82    \nframe=   60 fps=8.2 q=30.0 size=       1KiB time=00:00:02.00 bitrate=   2.5kbits/s speed=0.272x elapsed=0:00:07.34    \nframe=   63 fps=8.0 q=29.0 size=       1KiB time=00:00:02.10 bitrate=   2.4kbits/s speed=0.267x elapsed=0:00:07.86    \nframe=   67 fps=8.0 q=29.0 size=       1KiB time=00:00:02.23 bitrate=   2.3kbits/s speed=0.266x elapsed=0:00:08.40    \nframe=   71 fps=8.0 q=13.0 size=       1KiB time=00:00:02.36 bitrate=   2.1kbits/s speed=0.265x elapsed=0:00:08.92    \nframe=   75 fps=7.9 q=28.0 size=       1KiB time=00:00:02.50 bitrate=   2.0kbits/s speed=0.265x elapsed=0:00:09.44    \nframe=   80 fps=8.0 q=29.0 size=       1KiB time=00:00:02.66 bitrate=   1.9kbits/s speed=0.267x elapsed=0:00:09.97    \nframe=   83 fps=7.9 q=28.0 size=       1KiB time=00:00:02.76 bitrate=   1.8kbits/s speed=0.264x elapsed=0:00:10.49    \nframe=   88 fps=8.0 q=29.0 size=       1KiB time=00:00:02.93 bitrate=   1.7kbits/s speed=0.266x elapsed=0:00:11.01    \nframe=   91 fps=7.9 q=13.0 size=       1KiB time=00:00:03.03 bitrate=   1.7kbits/s speed=0.262x elapsed=0:00:11.56    \nframe=   96 fps=7.9 q=29.0 size=       1KiB time=00:00:03.20 bitrate=   1.6kbits/s speed=0.265x elapsed=0:00:12.07    \nframe=  100 fps=7.9 q=29.0 size=       1KiB time=00:00:03.33 bitrate=   1.5kbits/s speed=0.264x elapsed=0:00:12.62    \nframe=  104 fps=7.9 q=29.0 size=       1KiB time=00:00:03.46 bitrate=   1.5kbits/s speed=0.263x elapsed=0:00:13.17    \nframe=  108 fps=7.9 q=30.0 size=       1KiB time=00:00:03.60 bitrate=   1.4kbits/s speed=0.263x elapsed=0:00:13.69    \nframe=  112 fps=7.9 q=28.0 size=       1KiB time=00:00:03.73 bitrate=   1.4kbits/s speed=0.262x elapsed=0:00:14.23    \nframe=  116 fps=7.9 q=28.0 size=       1KiB time=00:00:03.86 bitrate=   1.3kbits/s speed=0.262x elapsed=0:00:14.77    \nframe=  120 fps=7.8 q=28.0 size=       1KiB time=00:00:04.00 bitrate=   1.3kbits/s speed=0.262x elapsed=0:00:15.29    \nframe=  124 fps=7.8 q=29.0 size=       1KiB time=00:00:04.13 bitrate=   1.2kbits/s speed=0.261x elapsed=0:00:15.80    \nframe=  126 fps=7.7 q=29.0 size=       1KiB time=00:00:04.20 bitrate=   1.2kbits/s speed=0.257x elapsed=0:00:16.32    \nframe=  126 fps=7.5 q=29.0 size=       1KiB time=00:00:04.20 bitrate=   1.2kbits/s speed=0.249x elapsed=0:00:16.85    \nframe=  126 fps=7.2 q=29.0 size=       1KiB time=00:00:04.20 bitrate=   1.2kbits/s speed=0.241x elapsed=0:00:17.39    \nframe=  126 fps=7.0 q=29.0 size=       1KiB time=00:00:04.20 bitrate=   1.2kbits/s speed=0.234x elapsed=0:00:17.93    \nframe=  126 fps=6.8 q=29.0 size=       1KiB time=00:00:04.20 bitrate=   1.2kbits/s speed=0.228x elapsed=0:00:18.44    \n[out#0/webm @ 00000294ca9ddac0] video:3866KiB audio:0KiB subtitle:0KiB other streams:0KiB global headers:0KiB muxing overhead: 0.047393%\nframe=  150 fps=7.9 q=23.0 Lsize=    3867KiB time=00:00:05.00 bitrate=6336.4kbits/s speed=0.264x elapsed=0:00:18.94    \n",
  "seconds": 19.156774520874023,
  "probe_out": {}
}